<svg width="557" height="244" viewBox="0 0 557 244" fill="none" xmlns="http://www.w3.org/2000/svg">
<rect width="557" height="243.469" fill="#F6DD04"/>
<g filter="url(#filter0_d_1_8)">
<rect x="88" y="25.3978" width="381.843" height="192.673" stroke="white" stroke-width="10" shape-rendering="crispEdges"/>
</g>
<g filter="url(#filter1_d_1_8)">
<path d="M122.21 197.441C119.083 197.441 116.19 196.834 113.53 195.621C110.917 194.407 108.77 192.657 107.09 190.371L112.27 184.141C113.623 186.007 115.093 187.407 116.68 188.341C118.313 189.274 120.087 189.741 122 189.741C127.087 189.741 129.63 186.731 129.63 180.711V155.371H112.2V147.741H138.73V180.221C138.73 186.007 137.307 190.324 134.46 193.171C131.66 196.017 127.577 197.441 122.21 197.441ZM170.184 196.741V189.181L169.694 187.571V174.341C169.694 171.774 168.924 169.791 167.384 168.391C165.844 166.944 163.511 166.221 160.384 166.221C158.284 166.221 156.207 166.547 154.154 167.201C152.147 167.854 150.444 168.764 149.044 169.931L145.614 163.561C147.621 162.021 150.001 160.877 152.754 160.131C155.554 159.337 158.447 158.941 161.434 158.941C166.847 158.941 171.024 160.247 173.964 162.861C176.951 165.427 178.444 169.417 178.444 174.831V196.741H170.184ZM158.424 197.231C155.624 197.231 153.174 196.764 151.074 195.831C148.974 194.851 147.341 193.521 146.174 191.841C145.054 190.114 144.494 188.177 144.494 186.031C144.494 183.931 144.984 182.041 145.964 180.361C146.991 178.681 148.647 177.351 150.934 176.371C153.221 175.391 156.254 174.901 160.034 174.901H170.884V180.711H160.664C157.677 180.711 155.671 181.201 154.644 182.181C153.617 183.114 153.104 184.281 153.104 185.681C153.104 187.267 153.734 188.527 154.994 189.461C156.254 190.394 158.004 190.861 160.244 190.861C162.391 190.861 164.304 190.371 165.984 189.391C167.711 188.411 168.947 186.964 169.694 185.051L171.164 190.301C170.324 192.494 168.807 194.197 166.614 195.411C164.467 196.624 161.737 197.231 158.424 197.231ZM195.43 196.741L179.4 159.361H188.5L202.29 192.331H197.81L212.09 159.361H220.49L204.46 196.741H195.43ZM244.327 196.741V189.181L243.837 187.571V174.341C243.837 171.774 243.067 169.791 241.527 168.391C239.987 166.944 237.653 166.221 234.527 166.221C232.427 166.221 230.35 166.547 228.297 167.201C226.29 167.854 224.587 168.764 223.187 169.931L219.757 163.561C221.763 162.021 224.143 160.877 226.897 160.131C229.697 159.337 232.59 158.941 235.577 158.941C240.99 158.941 245.167 160.247 248.107 162.861C251.093 165.427 252.587 169.417 252.587 174.831V196.741H244.327ZM232.567 197.231C229.767 197.231 227.317 196.764 225.217 195.831C223.117 194.851 221.483 193.521 220.317 191.841C219.197 190.114 218.637 188.177 218.637 186.031C218.637 183.931 219.127 182.041 220.107 180.361C221.133 178.681 222.79 177.351 225.077 176.371C227.363 175.391 230.397 174.901 234.177 174.901H245.027V180.711H234.807C231.82 180.711 229.813 181.201 228.787 182.181C227.76 183.114 227.247 184.281 227.247 185.681C227.247 187.267 227.877 188.527 229.137 189.461C230.397 190.394 232.147 190.861 234.387 190.861C236.533 190.861 238.447 190.371 240.127 189.391C241.853 188.411 243.09 186.964 243.837 185.051L245.307 190.301C244.467 192.494 242.95 194.197 240.757 195.411C238.61 196.624 235.88 197.231 232.567 197.231ZM276.346 197.441C272.52 197.441 268.856 196.904 265.356 195.831C261.856 194.711 259.08 193.287 257.026 191.561L260.176 184.491C262.136 186.031 264.563 187.314 267.456 188.341C270.35 189.367 273.313 189.881 276.346 189.881C278.913 189.881 280.99 189.601 282.576 189.041C284.163 188.481 285.33 187.734 286.076 186.801C286.823 185.821 287.196 184.724 287.196 183.511C287.196 182.017 286.66 180.827 285.586 179.941C284.513 179.007 283.113 178.284 281.386 177.771C279.706 177.211 277.816 176.697 275.716 176.231C273.663 175.764 271.586 175.227 269.486 174.621C267.433 173.967 265.543 173.151 263.816 172.171C262.136 171.144 260.76 169.791 259.686 168.111C258.613 166.431 258.076 164.284 258.076 161.671C258.076 159.011 258.776 156.584 260.176 154.391C261.623 152.151 263.793 150.377 266.686 149.071C269.626 147.717 273.336 147.041 277.816 147.041C280.756 147.041 283.673 147.414 286.566 148.161C289.46 148.907 291.98 149.981 294.126 151.381L291.256 158.451C289.063 157.144 286.8 156.187 284.466 155.581C282.133 154.927 279.893 154.601 277.746 154.601C275.226 154.601 273.173 154.904 271.586 155.511C270.046 156.117 268.903 156.911 268.156 157.891C267.456 158.871 267.106 159.991 267.106 161.251C267.106 162.744 267.62 163.957 268.646 164.891C269.72 165.777 271.096 166.477 272.776 166.991C274.503 167.504 276.416 168.017 278.516 168.531C280.616 168.997 282.693 169.534 284.746 170.141C286.846 170.747 288.736 171.541 290.416 172.521C292.143 173.501 293.52 174.831 294.546 176.511C295.62 178.191 296.156 180.314 296.156 182.881C296.156 185.494 295.433 187.921 293.986 190.161C292.586 192.354 290.416 194.127 287.476 195.481C284.536 196.787 280.826 197.441 276.346 197.441ZM317.99 197.231C314.07 197.231 310.57 196.414 307.49 194.781C304.456 193.101 302.076 190.814 300.35 187.921C298.623 185.027 297.76 181.737 297.76 178.051C297.76 174.317 298.623 171.027 300.35 168.181C302.076 165.287 304.456 163.024 307.49 161.391C310.57 159.757 314.07 158.941 317.99 158.941C321.63 158.941 324.826 159.687 327.58 161.181C330.38 162.627 332.503 164.774 333.95 167.621L327.23 171.541C326.11 169.767 324.733 168.461 323.1 167.621C321.513 166.781 319.786 166.361 317.92 166.361C315.773 166.361 313.836 166.827 312.11 167.761C310.383 168.694 309.03 170.047 308.05 171.821C307.07 173.547 306.58 175.624 306.58 178.051C306.58 180.477 307.07 182.577 308.05 184.351C309.03 186.077 310.383 187.407 312.11 188.341C313.836 189.274 315.773 189.741 317.92 189.741C319.786 189.741 321.513 189.321 323.1 188.481C324.733 187.641 326.11 186.334 327.23 184.561L333.95 188.481C332.503 191.281 330.38 193.451 327.58 194.991C324.826 196.484 321.63 197.231 317.99 197.231ZM338.013 196.741V159.361H346.343V169.651L345.363 166.641C346.483 164.121 348.233 162.207 350.613 160.901C353.04 159.594 356.05 158.941 359.643 158.941V167.271C359.27 167.177 358.92 167.131 358.593 167.131C358.267 167.084 357.94 167.061 357.613 167.061C354.3 167.061 351.663 168.041 349.703 170.001C347.743 171.914 346.763 174.784 346.763 178.611V196.741H338.013ZM363.566 196.741V159.361H372.316V196.741H363.566ZM367.976 153.201C366.343 153.201 364.99 152.687 363.916 151.661C362.89 150.634 362.376 149.397 362.376 147.951C362.376 146.457 362.89 145.221 363.916 144.241C364.99 143.214 366.343 142.701 367.976 142.701C369.61 142.701 370.94 143.191 371.966 144.171C373.04 145.104 373.576 146.294 373.576 147.741C373.576 149.281 373.063 150.587 372.036 151.661C371.01 152.687 369.656 153.201 367.976 153.201ZM401.021 197.231C397.987 197.231 395.211 196.531 392.691 195.131C390.217 193.731 388.234 191.631 386.741 188.831C385.294 185.984 384.571 182.391 384.571 178.051C384.571 173.664 385.271 170.071 386.671 167.271C388.117 164.471 390.077 162.394 392.551 161.041C395.024 159.641 397.847 158.941 401.021 158.941C404.707 158.941 407.951 159.734 410.751 161.321C413.597 162.907 415.837 165.124 417.471 167.971C419.151 170.817 419.991 174.177 419.991 178.051C419.991 181.924 419.151 185.307 417.471 188.201C415.837 191.047 413.597 193.264 410.751 194.851C407.951 196.437 404.707 197.231 401.021 197.231ZM380.301 210.321V159.361H388.631V168.181L388.351 178.121L389.051 188.061V210.321H380.301ZM400.041 189.741C402.141 189.741 404.007 189.274 405.641 188.341C407.321 187.407 408.651 186.054 409.631 184.281C410.611 182.507 411.101 180.431 411.101 178.051C411.101 175.624 410.611 173.547 409.631 171.821C408.651 170.047 407.321 168.694 405.641 167.761C404.007 166.827 402.141 166.361 400.041 166.361C397.941 166.361 396.051 166.827 394.371 167.761C392.691 168.694 391.361 170.047 390.381 171.821C389.401 173.547 388.911 175.624 388.911 178.051C388.911 180.431 389.401 182.507 390.381 184.281C391.361 186.054 392.691 187.407 394.371 188.341C396.051 189.274 397.941 189.741 400.041 189.741ZM438.859 197.231C434.752 197.231 431.579 196.181 429.339 194.081C427.099 191.934 425.979 188.784 425.979 184.631V151.101H434.729V184.421C434.729 186.194 435.172 187.571 436.059 188.551C436.992 189.531 438.275 190.021 439.909 190.021C441.869 190.021 443.502 189.507 444.809 188.481L447.259 194.711C446.232 195.551 444.972 196.181 443.479 196.601C441.985 197.021 440.445 197.231 438.859 197.231ZM419.819 166.641V159.641H444.739V166.641H419.819Z" fill="black"/>
</g>
<defs>
<filter id="filter0_d_1_8" x="79" y="20.3978" width="399.843" height="210.673" filterUnits="userSpaceOnUse" color-interpolation-filters="sRGB">
<feFlood flood-opacity="0" result="BackgroundImageFix"/>
<feColorMatrix in="SourceAlpha" type="matrix" values="0 0 0 0 0 0 0 0 0 0 0 0 0 0 0 0 0 0 127 0" result="hardAlpha"/>
<feOffset dy="4"/>
<feGaussianBlur stdDeviation="2"/>
<feComposite in2="hardAlpha" operator="out"/>
<feColorMatrix type="matrix" values="0 0 0 0 0 0 0 0 0 0 0 0 0 0 0 0 0 0 0.25 0"/>
<feBlend mode="normal" in2="BackgroundImageFix" result="effect1_dropShadow_1_8"/>
<feBlend mode="normal" in="SourceGraphic" in2="effect1_dropShadow_1_8" result="shape"/>
</filter>
<filter id="filter1_d_1_8" x="103.09" y="142.701" width="348.169" height="75.62" filterUnits="userSpaceOnUse" color-interpolation-filters="sRGB">
<feFlood flood-opacity="0" result="BackgroundImageFix"/>
<feColorMatrix in="SourceAlpha" type="matrix" values="0 0 0 0 0 0 0 0 0 0 0 0 0 0 0 0 0 0 127 0" result="hardAlpha"/>
<feOffset dy="4"/>
<feGaussianBlur stdDeviation="2"/>
<feComposite in2="hardAlpha" operator="out"/>
<feColorMatrix type="matrix" values="0 0 0 0 0 0 0 0 0 0 0 0 0 0 0 0 0 0 0.25 0"/>
<feBlend mode="normal" in2="BackgroundImageFix" result="effect1_dropShadow_1_8"/>
<feBlend mode="normal" in="SourceGraphic" in2="effect1_dropShadow_1_8" result="shape"/>
</filter>
</defs>
</svg>
